<svg width="28" height="29" viewBox="0 0 28 29" fill="none" xmlns="http://www.w3.org/2000/svg">
<g id="Ellipse 3">
<path d="M26.5 14.5C26.5 21.7298 20.8544 27.5 14 27.5C7.14562 27.5 1.5 21.7298 1.5 14.5C1.5 7.27025 7.14562 1.5 14 1.5C20.8544 1.5 26.5 7.27025 26.5 14.5Z" fill="white"/>
<path d="M26.5 14.5C26.5 21.7298 20.8544 27.5 14 27.5C7.14562 27.5 1.5 21.7298 1.5 14.5C1.5 7.27025 7.14562 1.5 14 1.5C20.8544 1.5 26.5 7.27025 26.5 14.5Z" stroke="#52BF41" stroke-width="3"/>
<path d="M26.5 14.5C26.5 21.7298 20.8544 27.5 14 27.5C7.14562 27.5 1.5 21.7298 1.5 14.5C1.5 7.27025 7.14562 1.5 14 1.5C20.8544 1.5 26.5 7.27025 26.5 14.5Z" stroke="black" stroke-opacity="0.2" stroke-width="3"/>
</g>
</svg>
