<svg width="16" height="15" viewBox="0 0 16 15" fill="none" xmlns="http://www.w3.org/2000/svg">
<g id="Frame" clip-path="url(#clip0_1_97)">
<path id="Vector" d="M8.44504 7.05551V0.849959C8.44504 0.599959 8.63948 0.388848 8.88948 0.388848C12.3256 0.388848 15.1117 3.17496 15.1117 6.61107C15.1117 6.86107 14.9006 7.05551 14.6506 7.05551H8.44504ZM0.889481 7.9444C0.889481 4.57496 3.39226 1.78607 6.63948 1.34163C6.89504 1.30551 7.1117 1.51107 7.1117 1.7694V8.38885L11.4589 12.7361C11.645 12.9222 11.6311 13.2277 11.4173 13.3777C10.3284 14.1555 8.99504 14.6111 7.55615 14.6111C3.87559 14.6111 0.889481 11.6277 0.889481 7.9444ZM15.5117 8.38885C15.77 8.38885 15.9728 8.60552 15.9395 8.86107C15.7256 10.4138 14.9784 11.7944 13.8867 12.8138C13.72 12.9694 13.4589 12.9583 13.2978 12.7944L8.88948 8.38885H15.5117Z" fill="#008891"/>
</g>
<defs>
<clipPath id="clip0_1_97">
<rect width="16" height="14.2222" fill="white" transform="translate(0 0.388889)"/>
</clipPath>
</defs>
</svg>
