<svg width="17" height="18" viewBox="0 0 17 18" fill="none" xmlns="http://www.w3.org/2000/svg">
<path id="Path 410" d="M14.0211 17.605L8.5005 13.328L2.97892 17.605C2.70695 17.819 2.38056 17.952 2.03703 17.989C1.69349 18.026 1.34592 17.966 1.03565 17.815C0.724342 17.663 0.46241 17.428 0.27906 17.134C0.0957105 16.841 -0.000969237 16.502 7.32559e-06 16.157V2.875C7.32559e-06 2.112 0.30323 1.381 0.842231 0.841999C1.38117 0.303001 2.11253 0 2.87516 0H14.1249C14.8875 0 15.6189 0.303001 16.1579 0.841999C16.6968 1.381 17 2.112 17 2.875V16.157C17.001 16.502 16.9043 16.841 16.7209 17.134C16.5376 17.428 16.2757 17.663 15.9644 17.815C15.6542 17.966 15.3066 18.026 14.9631 17.989C14.6195 17.952 14.2931 17.819 14.0211 17.605Z" fill="white"/>
</svg>
