<svg width="12" height="15" viewBox="0 0 12 15" fill="none" xmlns="http://www.w3.org/2000/svg">
<g id="Frame" clip-path="url(#clip0_1_70)">
<path id="Vector" d="M2.57143 3.78572C2.57143 4.69504 2.93265 5.56711 3.57563 6.21009C4.21862 6.85307 5.09069 7.21429 6 7.21429C6.90931 7.21429 7.78138 6.85307 8.42437 6.21009C9.06735 5.56711 9.42857 4.69504 9.42857 3.78572C9.42857 2.87641 9.06735 2.00434 8.42437 1.36136C7.78138 0.718374 6.90931 0.357151 6 0.357151C5.09069 0.357151 4.21862 0.718374 3.57563 1.36136C2.93265 2.00434 2.57143 2.87641 2.57143 3.78572ZM5.10268 9.14822L5.60089 9.97858L4.70893 13.2973L3.74464 9.36251C3.69107 9.14554 3.48214 9.00358 3.26518 9.05983C1.39018 9.52858 0 11.2268 0 13.2491C0 13.7045 0.369643 14.0714 0.822321 14.0714H4.35268C4.35268 14.0714 4.35268 14.0714 4.35536 14.0714H4.5H7.5H7.64732C7.64732 14.0714 7.64732 14.0714 7.65 14.0714H11.1777C11.633 14.0714 12 13.7018 12 13.2491C12 11.2268 10.6098 9.52858 8.73482 9.05983C8.51786 9.00626 8.30893 9.14822 8.25536 9.36251L7.29107 13.2973L6.39911 9.97858L6.89732 9.14822C7.06875 8.86162 6.8625 8.50001 6.53036 8.50001H6H5.47232C5.14018 8.50001 4.93393 8.86429 5.10536 9.14822H5.10268Z" fill="#008891"/>
</g>
<defs>
<clipPath id="clip0_1_70">
<rect width="12" height="13.7143" fill="white" transform="translate(0 0.357151)"/>
</clipPath>
</defs>
</svg>
